<svg viewBox="0 0 76 132" fill="none" xmlns="http://www.w3.org/2000/svg">
<path d="M38 76V131.5" stroke="white"/>
<g clip-path="url(#clip0)">
<path d="M38 25C33.4123 25 29.68 29.1712 29.68 34.298V41.7023C29.68 46.8291 33.4123 51 38 51C42.5875 51 46.32 46.8417 46.32 41.7307V34.298C46.32 29.1712 42.5875 25 38 25ZM44.7551 41.7307C44.7551 45.8924 41.7249 49.2782 38 49.2782C34.2753 49.2782 31.2449 45.8795 31.2449 41.702V34.298C31.2449 30.1205 34.2753 26.7218 38 26.7218C41.725 26.7218 44.7551 30.1205 44.7551 34.298V41.7307Z" fill="white" stroke="white"/>
<path d="M38 32.117C37.561 32.117 37.2053 32.5024 37.2053 32.978V35.9912C37.2053 36.4667 37.561 36.8522 38 36.8522C38.4389 36.8522 38.7947 36.4667 38.7947 35.9912V32.978C38.7947 32.5024 38.4389 32.117 38 32.117Z" fill="white" stroke="white"/>
</g>
<circle cx="38" cy="38" r="26.5" stroke="white" fill="none"/>
<circle cx="38" cy="38" r="37.5" stroke="white" stroke-dasharray="4 4" fill="none"/>
<defs>
<clipPath id="clip0">
<rect width="24" height="26" fill="white" transform="translate(26 25)"/>
</clipPath>
</defs>
</svg>
